<svg width="320" height="320" viewBox="0 0 320 320" fill="none" xmlns="http://www.w3.org/2000/svg">
<path d="M116.756 196.976C116.752 196.972 116.747 196.968 116.742 196.963C112.012 192.429 106.633 187.619 102.627 182.411C93.2613 170.236 88.3173 154.113 88.0051 138.834C87.7854 120.471 94.7236 102.743 107.35 89.406C120.622 75.6052 138.294 67.3646 157.529 67.0185C160.965 66.9568 172.342 66.915 174.617 69.2532C175.029 69.6778 207.912 84.261 207.894 84.8536C207.874 85.515 210.734 94.4994 210.216 94.9387C209.697 95.3786 173.195 73.2288 172.537 73.2263C170.585 73.2185 168.544 72.7689 166.587 72.5998C161.574 72.1667 156.665 72.0381 151.654 72.5829C130.546 75.0513 111.91 87.5102 101.563 106.07C98.9398 110.809 97.1008 115.827 95.5755 121.013C98.6811 124.082 101.493 127.742 103.906 131.382C111.733 143.19 115.774 156.286 115.861 170.446C115.897 176.464 115.773 182.442 116.042 188.459C118.031 190.411 118.885 191.085 121.709 191.378C121.595 181.175 121.704 170.946 121.719 160.741C121.725 156.587 121.861 152.396 121.727 148.248C126.379 145.493 130.917 142.569 135.626 139.909C135.921 144.525 135.615 149.299 135.615 153.933L135.733 179.783C135.736 184.346 135.514 188.927 135.665 193.487C130.654 192.835 125.702 192.289 120.643 192.408C122.675 194.62 125.054 196.563 127.254 198.613C129.784 198.683 132.383 199.067 134.894 199.393C143.64 200.526 151.969 202.297 160.08 205.815C161.452 206.411 162.91 206.98 164.223 207.691C168.958 194.41 179.68 184.6 192.22 178.664C198.487 175.77 205.018 173.484 211.723 171.839C213.806 171.315 215.987 170.729 218.127 170.52L219.764 167.649C215.639 163.663 198.254 150.961 193.18 149.387C190.304 148.495 186.762 148.91 183.767 148.934C183.593 144.63 183.027 139.441 186.129 135.948C188.21 133.604 191.346 132.791 194.369 132.62C192.07 130.751 190.329 128.852 189.996 125.744C189.71 123.069 190.24 120.435 191.961 118.306C193.655 116.211 196.264 114.967 198.925 114.722C201.517 114.483 204.24 115.276 206.234 116.964C208.254 118.674 209.345 121.111 209.517 123.728C209.679 126.178 208.965 128.596 207.304 130.442C206.513 131.321 205.573 132.031 204.614 132.716C207.905 132.985 211.003 133.42 213.288 136.07C215.713 138.881 215.893 143.591 215.501 147.113C215.441 147.646 215.343 148.28 214.927 148.658C214.17 149.345 207.845 148.85 206.481 148.784C202.746 148.78 198.917 148.383 195.204 148.862C204.05 153.891 212.422 160.063 220.318 166.471C220.916 165.235 221.504 163.995 222.081 162.749C219.229 159.793 216.395 156.989 213.328 154.247C213.968 154.327 214.571 154.338 215.213 154.271C217.025 154.081 218.703 153.414 219.85 151.946C222.063 149.113 221.502 143.859 221.14 140.463L221.14 140.458C220.575 135.159 218.471 132.726 214.495 129.491C215.032 126.914 215.535 124.178 215.057 121.549C214.366 117.584 212.114 114.062 208.804 111.772C205.329 109.351 201.036 108.405 196.865 109.14C192.823 109.875 189.32 112.078 186.981 115.463C184.07 119.676 183.879 124.281 184.762 129.173C183.262 130.342 181.879 131.57 180.613 132.991C179.529 130.042 177.9 127.705 175.428 125.756C176.269 120.81 176.381 117.515 174.531 112.76C175.818 112.021 177.004 111.03 178.35 110.4C180.028 109.616 183.773 110.26 185.852 109.992C187.642 109.762 189.486 109.142 190.596 107.632C192.651 104.838 191.713 99.4993 191.145 96.2703C191.14 96.2425 191.135 96.2149 191.131 96.1873C191.804 96.4643 192.516 96.7139 193.25 96.7257C195.841 96.7678 197.672 95.0617 199.417 93.3931C202.933 94.2763 206.562 95.1633 210.216 94.9387C208.787 92.7788 203.291 89.1823 203.886 86.6588C204.074 85.8597 204.431 84.93 205.157 84.4749C205.693 84.1393 206.392 84.2502 206.954 84.44C209.296 85.2307 211.175 87.676 212.787 89.4512C218.347 95.5727 223.188 102.034 226.696 109.567C234.208 125.697 235.04 144.142 229.01 160.882C223.974 174.589 215.1 187.08 204.352 196.923C204.418 196.375 204.352 196.943 204.352 196.923C204.34 196.935 202.21 197.107 204.352 196.923C200.584 200.438 193.131 207.956 189.42 211.527C182.165 218.51 175.256 224.615 170.46 233.686C170.431 233.741 170.402 233.796 170.372 233.851C168.811 236.803 167.215 239.822 166.04 242.948C164.99 245.739 163.474 251.307 162.122 253.542C161.731 254.189 160.935 254.94 160.14 254.998C159.627 255.035 159.039 254.642 158.693 254.288C157.486 253.056 154.027 242.926 152.969 240.434C151.361 236.642 149.759 232.92 147.486 229.464C142.787 222.319 137.175 215.954 130.969 210.091C129.817 209.003 128.631 207.937 127.443 206.87C125.305 204.949 123.162 203.023 121.201 200.952C121.168 200.917 121.135 200.881 121.102 200.846C121.097 200.841 121.092 200.835 121.087 200.83C121.07 200.828 121.118 200.81 121.087 200.83C121.075 200.83 121.108 200.833 121.087 200.83C121.104 200.82 121.121 200.83 121.087 200.83C121.08 200.834 121.085 200.839 121.099 200.845L121.102 200.846C121.368 200.963 124.508 201.512 122.124 201.566C122.026 201.568 121.916 201.569 121.795 201.569C122.906 201.94 122.639 201.844 122.124 201.566C121.826 201.404 121.445 201.181 121.201 200.952C121.163 200.916 121.129 200.881 121.099 200.845C121.095 200.84 121.091 200.835 121.087 200.83C121.087 200.83 117.092 197.706 116.742 196.963C116.707 196.888 116.709 196.837 116.756 196.817C120.963 193.645 125.013 200.499 116.756 196.976C116.912 197.072 125.889 197.055 116.756 196.976ZM128.901 200.098C130.3 201.511 135.248 207.061 136.828 207.243C142.955 207.91 151.194 209.332 156.451 212.579C156.542 219.501 156.685 226.527 156.454 233.442C157.241 236.567 158.833 239.686 159.943 242.728C160.792 239.975 162.373 237.338 162.692 234.456C163.089 230.871 161.919 218.121 162.776 215.716C162.901 215.367 162.968 215.269 163.321 215.12L163.567 215.294C164.174 217.042 163.829 230.673 163.815 233.195C165.43 231.187 166.58 228.667 168.066 226.531C168.698 225.622 170.007 224.258 170.226 223.203C170.168 216.093 170.042 210.896 173.695 204.503C181.929 190.092 197.042 183.548 212.352 179.377C212.41 179.299 212.468 179.221 212.527 179.143C214.288 176.783 216.119 174.329 217.467 171.715C198.957 175.998 179.854 182.838 169.275 199.762C167.505 202.593 165.826 205.995 164.897 209.225C161.56 208.057 158.47 206.349 155.17 205.13C146.929 202.084 137.662 200.53 128.901 200.098ZM95.1723 122.481C94.9134 125.038 94.1958 127.537 93.9506 130.114C93.9764 130.145 94.0022 130.177 94.028 130.208C95.8693 132.448 97.6986 134.673 99.2909 137.1C104.387 144.868 107.675 154.396 108.492 163.638C108.746 166.51 108.676 169.428 108.685 172.308C108.694 175.003 108.915 177.745 108.72 180.433C108.806 181.675 113.793 186.408 114.924 187.47C114.377 180.552 114.87 173.617 114.505 166.706C113.671 150.1 106.795 134.372 95.1723 122.481Z" fill="white"/>
<path d="M122.124 201.566C122.026 201.568 121.916 201.569 121.795 201.569C122.906 201.94 122.639 201.844 122.124 201.566Z" fill="white"/>
<path fill-rule="evenodd" clip-rule="evenodd" d="M116.756 196.976C116.752 196.972 116.747 196.968 116.742 196.963C117.092 197.706 121.087 200.83 121.087 200.83C121.092 200.835 121.097 200.841 121.102 200.846C121.368 200.963 124.508 201.512 122.124 201.566C122.639 201.844 122.906 201.94 121.795 201.569C123.59 203.409 125.519 205.141 127.443 206.87C128.631 207.937 129.817 209.003 130.969 210.091C137.175 215.954 142.787 222.319 147.486 229.464C149.759 232.92 151.361 236.642 152.969 240.434C154.027 242.926 157.486 253.056 158.693 254.288C159.039 254.642 159.627 255.035 160.14 254.998C160.935 254.94 161.731 254.189 162.122 253.542C163.474 251.307 164.99 245.739 166.04 242.948C167.215 239.822 168.811 236.803 170.372 233.851L170.46 233.686C175.256 224.615 182.165 218.51 189.42 211.527C193.131 207.956 200.584 200.438 204.352 196.923C215.1 187.08 223.974 174.589 229.01 160.882C235.04 144.142 234.208 125.697 226.696 109.567C223.188 102.034 218.347 95.5727 212.787 89.4512C211.175 87.676 209.296 85.2307 206.954 84.44C206.392 84.2502 205.693 84.1393 205.157 84.4749C204.431 84.93 204.074 85.8597 203.886 86.6588C203.291 89.1823 208.787 92.7788 210.216 94.9387C206.562 95.1633 202.933 94.2763 199.417 93.3931C197.672 95.0617 195.841 96.7678 193.25 96.7257C192.516 96.7139 191.804 96.4643 191.131 96.1873L191.145 96.2703C191.713 99.4993 192.651 104.838 190.596 107.632C189.486 109.142 187.642 109.762 185.852 109.992C183.773 110.26 180.028 109.616 178.35 110.4C177.004 111.03 175.818 112.021 174.531 112.76C176.381 117.515 176.269 120.81 175.428 125.756C177.9 127.705 179.529 130.042 180.613 132.991C181.879 131.57 183.262 130.342 184.762 129.173C183.879 124.281 184.07 119.676 186.981 115.463C189.32 112.078 192.823 109.875 196.865 109.14C201.036 108.405 205.329 109.351 208.804 111.772C212.114 114.062 214.366 117.584 215.057 121.549C215.535 124.178 215.032 126.914 214.495 129.491C218.471 132.726 220.575 135.159 221.14 140.458L221.14 140.463C221.502 143.859 222.063 149.113 219.85 151.946C218.703 153.414 217.025 154.081 215.213 154.271C214.571 154.338 213.968 154.327 213.328 154.247C216.395 156.989 219.229 159.793 222.081 162.749C221.504 163.995 220.916 165.235 220.318 166.471C212.422 160.063 204.05 153.891 195.204 148.862C198.917 148.383 202.746 148.78 206.481 148.784C207.845 148.85 214.17 149.345 214.927 148.658C215.343 148.28 215.441 147.646 215.501 147.113C215.893 143.591 215.713 138.881 213.288 136.07C211.003 133.42 207.905 132.985 204.614 132.716C205.573 132.031 206.513 131.321 207.304 130.442C208.965 128.596 209.679 126.178 209.517 123.728C209.345 121.111 208.254 118.674 206.234 116.964C204.24 115.276 201.517 114.483 198.925 114.722C196.264 114.967 193.655 116.211 191.961 118.306C190.24 120.435 189.71 123.069 189.996 125.744C190.329 128.852 192.07 130.751 194.369 132.62C191.346 132.791 188.21 133.604 186.129 135.948C183.027 139.441 183.593 144.63 183.767 148.934C186.762 148.91 190.304 148.495 193.18 149.387C198.254 150.961 215.639 163.663 219.764 167.649L218.127 170.52C215.987 170.729 213.806 171.315 211.723 171.839C205.018 173.484 198.487 175.77 192.22 178.664C179.68 184.6 168.958 194.41 164.223 207.691C162.91 206.98 161.452 206.411 160.08 205.815C151.969 202.297 143.64 200.526 134.894 199.393C132.383 199.067 129.784 198.683 127.254 198.613C125.054 196.563 122.675 194.62 120.643 192.408C125.702 192.289 130.654 192.835 135.665 193.487C135.514 188.927 135.736 184.346 135.733 179.783L135.615 153.933C135.615 149.299 135.921 144.525 135.626 139.909C130.917 142.569 126.379 145.493 121.727 148.248C121.861 152.396 121.725 156.587 121.719 160.741C121.704 170.946 121.595 181.175 121.709 191.378C118.885 191.085 118.031 190.411 116.042 188.459C115.773 182.442 115.897 176.464 115.861 170.446C115.774 156.286 111.733 143.19 103.906 131.382C101.493 127.742 98.6811 124.082 95.5755 121.013C97.1008 115.827 98.9398 110.809 101.563 106.07C111.91 87.5102 130.546 75.0513 151.654 72.5829C156.665 72.0381 161.574 72.1667 166.587 72.5998C168.544 72.7689 170.585 73.2185 172.537 73.2263C173.195 73.2288 209.697 95.3786 210.216 94.9387C210.734 94.4994 207.874 85.515 207.894 84.8536C207.912 84.261 175.029 69.6778 174.617 69.2532C172.342 66.915 160.965 66.9568 157.529 67.0185C138.294 67.3646 120.622 75.6052 107.35 89.406C94.7236 102.743 87.7854 120.471 88.0051 138.834C88.3173 154.113 93.2613 170.236 102.627 182.411C106.633 187.619 112.012 192.429 116.742 196.963C116.707 196.888 116.709 196.837 116.756 196.817C120.963 193.645 125.013 200.499 116.756 196.976ZM136.828 207.243C135.248 207.061 130.3 201.511 128.901 200.098C137.662 200.53 146.929 202.084 155.17 205.13C158.47 206.349 161.56 208.057 164.897 209.225C165.826 205.995 167.505 202.593 169.275 199.762C179.854 182.838 198.957 175.998 217.467 171.715C216.119 174.329 214.288 176.783 212.527 179.143L212.352 179.377C197.042 183.548 181.929 190.092 173.695 204.503C170.042 210.896 170.168 216.093 170.226 223.203C170.007 224.258 168.698 225.622 168.066 226.531C166.58 228.667 165.43 231.187 163.815 233.195C163.829 230.673 164.174 217.042 163.567 215.294L163.321 215.12C162.968 215.269 162.901 215.367 162.776 215.716C161.919 218.121 163.089 230.871 162.692 234.456C162.373 237.338 160.792 239.975 159.943 242.728C158.833 239.686 157.241 236.567 156.454 233.442C156.685 226.527 156.542 219.501 156.451 212.579C151.194 209.332 142.955 207.91 136.828 207.243ZM93.9506 130.114C94.1958 127.537 94.9134 125.038 95.1723 122.481C106.795 134.372 113.671 150.1 114.505 166.706C114.87 173.617 114.377 180.552 114.924 187.47C113.793 186.408 108.806 181.675 108.72 180.433C108.915 177.745 108.694 175.003 108.685 172.308C108.676 169.428 108.746 166.51 108.492 163.638C107.675 154.396 104.387 144.868 99.2909 137.1C97.6986 134.673 95.8693 132.448 94.028 130.208L93.9506 130.114Z" fill="white"/>
<path fill-rule="evenodd" clip-rule="evenodd" d="M102.627 182.411C93.2613 170.236 88.3173 154.113 88.0051 138.834C87.7854 120.471 94.7236 102.743 107.35 89.406C120.622 75.6052 138.294 67.3646 157.529 67.0185C160.965 66.9568 172.342 66.915 174.617 69.2532C175.029 69.6778 207.912 84.261 207.894 84.8536C209.807 85.89 211.397 87.9199 212.787 89.4512C218.347 95.5727 223.188 102.034 226.696 109.567C234.208 125.697 235.04 144.142 229.01 160.882C223.974 174.589 215.1 187.08 204.352 196.923C200.584 200.438 193.131 207.956 189.42 211.527C182.165 218.51 175.256 224.615 170.46 233.686L170.372 233.851C168.811 236.803 167.215 239.822 166.04 242.948C164.99 245.739 163.474 251.307 162.122 253.542C161.731 254.189 160.935 254.94 160.14 254.998C159.627 255.035 159.039 254.642 158.693 254.288C157.486 253.056 154.027 242.926 152.969 240.434C151.361 236.642 149.759 232.92 147.486 229.464C142.787 222.319 137.175 215.954 130.969 210.091C129.817 209.003 128.631 207.937 127.443 206.87C125.519 205.141 123.59 203.409 121.795 201.569C121.595 201.365 121.397 201.159 121.201 200.952C121.163 200.916 121.129 200.881 121.099 200.845C121.085 200.839 121.08 200.834 121.087 200.83C121.087 200.83 117.092 197.706 116.742 196.963C112.012 192.429 106.633 187.619 102.627 182.411ZM136.828 207.243C135.248 207.061 130.3 201.511 128.901 200.098C137.662 200.53 146.929 202.084 155.17 205.13C158.47 206.349 161.56 208.057 164.897 209.225C165.826 205.995 167.505 202.593 169.275 199.762C179.854 182.838 198.957 175.998 217.467 171.715C216.119 174.329 214.288 176.783 212.527 179.143L212.352 179.377C197.042 183.548 181.929 190.092 173.695 204.503C170.042 210.896 170.168 216.093 170.226 223.203C170.007 224.258 168.698 225.622 168.066 226.531C166.58 228.667 165.43 231.187 163.815 233.195C163.829 230.673 164.174 217.042 163.567 215.294L163.321 215.12C162.968 215.269 162.901 215.367 162.776 215.716C161.919 218.121 163.089 230.871 162.692 234.456C162.373 237.338 160.792 239.975 159.943 242.728C158.833 239.686 157.241 236.567 156.454 233.442C156.685 226.527 156.542 219.501 156.451 212.579C151.194 209.332 142.955 207.91 136.828 207.243ZM93.9506 130.114C94.1958 127.537 94.9134 125.038 95.1723 122.481C106.795 134.372 113.671 150.1 114.505 166.706C114.87 173.617 114.377 180.552 114.924 187.47C113.793 186.408 108.806 181.675 108.72 180.433C108.915 177.745 108.694 175.003 108.685 172.308C108.676 169.428 108.746 166.51 108.492 163.638C107.675 154.396 104.387 144.868 99.2909 137.1C97.6986 134.673 95.8693 132.448 94.028 130.208L93.9506 130.114Z" fill="white"/>
<path d="M95.1723 122.481C94.9134 125.038 94.1958 127.537 93.9506 130.114L94.028 130.208C95.8693 132.448 97.6986 134.673 99.2909 137.1C104.387 144.868 107.675 154.396 108.492 163.638C108.746 166.51 108.676 169.428 108.685 172.308C108.694 175.003 108.915 177.745 108.72 180.433C108.806 181.675 113.793 186.408 114.924 187.47C114.377 180.552 114.87 173.617 114.505 166.706C113.671 150.1 106.795 134.372 95.1723 122.481Z" fill="white"/>
<path d="M128.901 200.098C130.3 201.511 135.248 207.061 136.828 207.243C142.955 207.91 151.194 209.332 156.451 212.579C156.542 219.501 156.685 226.527 156.454 233.442C157.241 236.567 158.833 239.686 159.943 242.728C160.792 239.975 162.373 237.338 162.692 234.456C163.089 230.871 161.919 218.121 162.776 215.716C162.901 215.367 162.968 215.269 163.321 215.12L163.567 215.294C164.174 217.042 163.829 230.673 163.815 233.195C165.43 231.187 166.58 228.667 168.066 226.531C168.698 225.622 170.007 224.258 170.226 223.203C170.168 216.093 170.042 210.896 173.695 204.503C181.929 190.092 197.042 183.548 212.352 179.377L212.527 179.143C214.288 176.783 216.119 174.329 217.467 171.715C198.957 175.998 179.854 182.838 169.275 199.762C167.505 202.593 165.826 205.995 164.897 209.225C161.56 208.057 158.47 206.349 155.17 205.13C146.929 202.084 137.662 200.53 128.901 200.098Z" fill="white"/>
<path d="M116.406 197.248C116.402 197.243 116.397 197.239 116.393 197.235C111.648 192.687 106.253 187.861 102.236 182.638C92.8431 170.425 87.8847 154.253 87.5716 138.927C87.3512 120.507 94.3097 102.725 106.973 89.3472C120.283 75.5041 138.007 67.2381 157.298 66.8909C160.744 66.8291 172.154 66.7872 174.435 69.1325C174.849 69.5584 175.069 70.1134 175.051 70.7078C175.031 71.3713 174.787 72.1241 174.267 72.5647C173.747 73.0059 173.01 73.1203 172.35 73.1178C170.393 73.11 168.345 72.6591 166.383 72.4894C161.355 72.055 156.432 71.9259 151.406 72.4725C130.237 74.9484 111.546 87.4456 101.169 106.063C98.5381 110.816 96.6937 115.849 95.1641 121.051C98.2787 124.129 101.098 127.801 103.519 131.452C111.369 143.296 115.422 156.433 115.508 170.636C115.545 176.673 115.42 182.669 115.69 188.704C117.685 190.662 118.541 191.338 121.373 191.632C121.259 181.398 121.369 171.138 121.384 160.902C121.39 156.735 121.526 152.531 121.392 148.369C126.057 145.607 130.609 142.673 135.332 140.005C135.627 144.636 135.32 149.424 135.32 154.072L135.438 180.002C135.441 184.578 135.219 189.174 135.37 193.748C130.345 193.093 125.378 192.546 120.305 192.665C122.343 194.884 124.728 196.833 126.934 198.889C129.472 198.96 132.078 199.345 134.598 199.672C143.368 200.808 151.722 202.585 159.857 206.114C161.233 206.711 162.694 207.282 164.012 207.995C168.761 194.673 179.514 184.834 192.09 178.879C198.375 175.976 204.925 173.683 211.65 172.034C213.739 171.507 215.927 170.92 218.073 170.71L219.714 167.831C215.577 163.832 198.141 151.091 193.053 149.512C190.168 148.618 186.616 149.033 183.613 149.058C183.438 144.74 182.87 139.536 185.982 136.032C188.069 133.681 191.213 132.865 194.245 132.694C191.94 130.819 190.193 128.914 189.86 125.797C189.573 123.114 190.104 120.472 191.83 118.336C193.529 116.234 196.146 114.987 198.815 114.741C201.414 114.501 204.145 115.297 206.145 116.99C208.171 118.705 209.265 121.149 209.438 123.775C209.6 126.232 208.884 128.657 207.218 130.51C206.425 131.391 205.482 132.103 204.52 132.79C207.821 133.06 210.927 133.497 213.22 136.154C215.652 138.974 215.832 143.699 215.438 147.231C215.379 147.766 215.28 148.402 214.863 148.781C214.104 149.471 207.761 148.973 206.392 148.908C202.647 148.903 198.806 148.506 195.083 148.986C203.955 154.031 212.351 160.222 220.269 166.649C220.869 165.409 221.459 164.165 222.038 162.915C219.178 159.951 216.336 157.138 213.26 154.387C213.902 154.468 214.506 154.479 215.15 154.412C216.967 154.221 218.65 153.551 219.8 152.079C222.02 149.238 221.458 143.967 221.095 140.561L221.094 140.556C220.527 135.24 218.417 132.801 214.43 129.556C214.969 126.97 215.473 124.226 214.993 121.589C214.301 117.612 212.042 114.079 208.722 111.782C205.237 109.353 200.932 108.404 196.748 109.142C192.695 109.879 189.182 112.089 186.836 115.484C183.916 119.71 183.725 124.33 184.611 129.237C183.106 130.408 181.719 131.64 180.449 133.066C179.362 130.108 177.728 127.764 175.249 125.808C176.092 120.847 176.205 117.542 174.349 112.773C175.64 112.031 176.83 111.037 178.18 110.406C179.863 109.619 183.619 110.266 185.704 109.997C187.499 109.765 189.348 109.144 190.462 107.629C192.522 104.827 191.581 99.4715 191.012 96.2326C191.007 96.2047 191.002 96.177 190.998 96.1494C191.673 96.4272 192.387 96.6775 193.123 96.6894C195.722 96.7316 197.558 95.0203 199.308 93.3466C202.835 94.2325 206.474 95.1222 210.138 94.8969C208.706 92.7303 203.193 89.1228 203.79 86.5916C203.979 85.79 204.336 84.8575 205.065 84.4009C205.602 84.0644 206.303 84.1756 206.867 84.3659C209.216 85.1591 211.1 87.6119 212.717 89.3925C218.293 95.5328 223.148 102.014 226.667 109.57C234.201 125.749 235.035 144.251 228.988 161.043C223.937 174.792 215.036 187.321 204.258 197.195C204.258 197.215 204.323 196.645 204.258 197.195C202.109 197.379 204.245 197.206 204.258 197.195C200.478 200.72 193.003 208.261 189.282 211.843C182.005 218.847 175.077 224.971 170.267 234.07C170.237 234.125 170.208 234.181 170.179 234.236C168.613 237.197 167.012 240.225 165.833 243.361C164.781 246.161 163.26 251.746 161.904 253.988C161.512 254.636 160.714 255.39 159.917 255.447C159.402 255.484 158.812 255.091 158.465 254.736C157.255 253.499 153.785 243.339 152.725 240.839C151.112 237.035 149.505 233.302 147.226 229.835C142.513 222.668 136.885 216.284 130.661 210.403C127.391 207.314 123.847 204.405 120.765 201.13C120.759 201.124 120.754 201.119 120.749 201.113C120.733 201.112 120.781 201.094 120.749 201.113C120.738 201.114 120.771 201.116 120.749 201.113C120.767 201.104 120.784 201.113 120.749 201.113C120.743 201.117 120.749 201.123 120.765 201.13C121.032 201.246 124.181 201.798 121.79 201.851C121.691 201.853 121.581 201.855 121.46 201.855C122.575 202.226 122.306 202.131 121.79 201.851C121.438 201.661 120.971 201.385 120.749 201.113C120.749 201.113 116.743 197.98 116.393 197.235C116.357 197.159 116.359 197.108 116.406 197.087C120.625 193.906 124.688 200.781 116.406 197.248C125.566 197.327 116.563 197.344 116.406 197.248ZM128.587 200.379C129.99 201.796 134.953 207.363 136.537 207.546C142.681 208.215 150.945 209.642 156.217 212.898C156.308 219.842 156.452 226.889 156.22 233.826C157.009 236.96 158.606 240.089 159.719 243.14C160.57 240.378 162.156 237.733 162.476 234.843C162.874 231.246 161.7 218.457 162.561 216.045C162.686 215.695 162.753 215.597 163.107 215.447L163.354 215.621C163.962 217.375 163.617 231.048 163.602 233.578C165.222 231.564 166.376 229.036 167.866 226.893C168.5 225.982 169.812 224.613 170.032 223.555C169.973 216.423 169.847 211.211 173.511 204.798C181.769 190.342 196.926 183.778 212.281 179.594C212.339 179.516 212.397 179.438 212.456 179.359C214.222 176.992 216.059 174.531 217.411 171.909C198.846 176.205 179.688 183.067 169.078 200.042C167.303 202.882 165.619 206.294 164.688 209.534C161.341 208.363 158.242 206.65 154.933 205.427C146.667 202.371 137.373 200.813 128.587 200.379ZM94.7597 122.524C94.5 125.089 93.7803 127.596 93.5344 130.18C93.5603 130.212 93.5862 130.243 93.6121 130.275C95.4587 132.521 97.2933 134.753 98.8903 137.188C104.001 144.979 107.298 154.537 108.118 163.808C108.373 166.688 108.303 169.615 108.312 172.504C108.321 175.207 108.542 177.957 108.347 180.653C108.433 181.899 113.434 186.647 114.569 187.712C114.021 180.773 114.515 173.817 114.148 166.884C113.312 150.228 106.417 134.451 94.7597 122.524Z" fill="#04304D"/>
<path d="M121.79 201.851C121.691 201.853 121.581 201.855 121.46 201.855C122.575 202.226 122.306 202.131 121.79 201.851Z" fill="#04304D"/>
<path fill-rule="evenodd" clip-rule="evenodd" d="M116.406 197.248C116.402 197.243 116.397 197.239 116.393 197.235C116.743 197.98 120.749 201.113 120.749 201.113C120.754 201.119 120.759 201.124 120.765 201.13C121.032 201.246 124.181 201.798 121.79 201.851C122.306 202.131 122.575 202.226 121.46 201.855C124.372 204.839 127.634 207.543 130.661 210.403C136.885 216.284 142.513 222.668 147.226 229.835C149.505 233.302 151.112 237.035 152.725 240.839C153.785 243.339 157.255 253.499 158.465 254.736C158.812 255.091 159.402 255.484 159.917 255.447C160.714 255.39 161.512 254.636 161.904 253.988C163.26 251.746 164.781 246.161 165.833 243.361C167.012 240.225 168.613 237.197 170.179 234.236L170.267 234.07C175.077 224.971 182.005 218.847 189.282 211.843C193.003 208.261 200.478 200.72 204.258 197.195C215.036 187.321 223.937 174.792 228.988 161.043C235.035 144.251 234.201 125.749 226.667 109.57C223.148 102.014 218.293 95.5328 212.717 89.3925C211.1 87.6119 209.216 85.1591 206.867 84.3659C206.303 84.1756 205.602 84.0644 205.065 84.4009C204.336 84.8575 203.979 85.79 203.79 86.5916C203.193 89.1228 208.706 92.7303 210.138 94.8969C206.474 95.1222 202.835 94.2325 199.308 93.3466C197.558 95.0203 195.722 96.7316 193.123 96.6894C192.387 96.6775 191.673 96.4272 190.998 96.1494L191.012 96.2326C191.581 99.4715 192.522 104.827 190.462 107.629C189.348 109.144 187.499 109.765 185.704 109.997C183.619 110.266 179.863 109.619 178.18 110.406C176.83 111.037 175.64 112.031 174.349 112.773C176.205 117.542 176.092 120.847 175.249 125.808C177.728 127.764 179.362 130.108 180.449 133.066C181.719 131.64 183.106 130.408 184.611 129.237C183.725 124.33 183.916 119.71 186.836 115.484C189.182 112.089 192.695 109.879 196.748 109.142C200.932 108.404 205.237 109.353 208.722 111.782C212.042 114.079 214.301 117.612 214.993 121.589C215.473 124.226 214.969 126.97 214.43 129.556C218.417 132.801 220.527 135.24 221.094 140.556L221.095 140.561C221.458 143.967 222.02 149.238 219.8 152.079C218.65 153.551 216.967 154.221 215.15 154.412C214.506 154.479 213.902 154.468 213.26 154.387C216.336 157.138 219.178 159.951 222.038 162.915C221.459 164.165 220.869 165.409 220.269 166.649C212.351 160.222 203.955 154.031 195.083 148.986C198.806 148.506 202.647 148.903 206.392 148.908C207.761 148.973 214.104 149.471 214.863 148.781C215.28 148.402 215.379 147.766 215.438 147.231C215.832 143.699 215.652 138.974 213.22 136.154C210.927 133.497 207.821 133.06 204.52 132.79C205.482 132.103 206.425 131.391 207.218 130.51C208.884 128.657 209.6 126.232 209.438 123.775C209.265 121.149 208.171 118.705 206.145 116.99C204.145 115.297 201.414 114.501 198.815 114.741C196.146 114.987 193.529 116.234 191.83 118.336C190.104 120.472 189.573 123.114 189.86 125.797C190.193 128.914 191.94 130.819 194.245 132.694C191.213 132.865 188.069 133.681 185.982 136.032C182.87 139.536 183.438 144.74 183.613 149.058C186.616 149.033 190.168 148.618 193.053 149.512C198.141 151.091 215.577 163.832 219.714 167.831L218.073 170.71C215.927 170.92 213.739 171.507 211.65 172.034C204.925 173.683 198.375 175.976 192.09 178.879C179.514 184.834 168.761 194.673 164.012 207.995C162.694 207.282 161.233 206.711 159.857 206.114C151.722 202.585 143.368 200.808 134.598 199.672C132.078 199.345 129.472 198.96 126.934 198.889C124.728 196.833 122.343 194.884 120.305 192.665C125.378 192.546 130.345 193.093 135.37 193.748C135.219 189.174 135.441 184.578 135.438 180.002L135.32 154.072C135.32 149.424 135.627 144.636 135.332 140.005C130.609 142.673 126.057 145.607 121.392 148.369C121.526 152.531 121.39 156.735 121.384 160.902C121.369 171.138 121.259 181.398 121.373 191.632C118.541 191.338 117.685 190.662 115.69 188.704C115.42 182.669 115.545 176.673 115.508 170.636C115.422 156.433 111.369 143.296 103.519 131.452C101.098 127.801 98.2787 124.129 95.1641 121.051C96.6937 115.849 98.5381 110.816 101.169 106.063C111.546 87.4456 130.237 74.9484 151.406 72.4725C156.432 71.9259 161.355 72.055 166.383 72.4894C168.345 72.6591 170.393 73.11 172.35 73.1178C173.01 73.1203 173.747 73.0059 174.267 72.5647C174.787 72.1241 175.031 71.3713 175.051 70.7078C175.069 70.1134 174.849 69.5584 174.435 69.1325C172.154 66.7872 160.744 66.8291 157.298 66.8909C138.007 67.2381 120.283 75.5041 106.973 89.3472C94.3097 102.725 87.3512 120.507 87.5716 138.927C87.8847 154.253 92.8431 170.425 102.236 182.638C106.253 187.861 111.648 192.687 116.393 197.235C116.357 197.159 116.359 197.108 116.406 197.087C120.625 193.906 124.688 200.781 116.406 197.248ZM136.537 207.546C134.953 207.363 129.99 201.796 128.587 200.379C137.373 200.813 146.667 202.371 154.933 205.427C158.242 206.65 161.341 208.363 164.688 209.534C165.619 206.294 167.303 202.882 169.078 200.042C179.688 183.067 198.846 176.205 217.411 171.909C216.059 174.531 214.222 176.992 212.456 179.359L212.281 179.594C196.926 183.778 181.769 190.342 173.511 204.798C169.847 211.211 169.973 216.423 170.032 223.555C169.812 224.613 168.5 225.982 167.866 226.893C166.376 229.036 165.222 231.564 163.602 233.578C163.617 231.048 163.962 217.375 163.354 215.621L163.107 215.447C162.753 215.597 162.686 215.695 162.561 216.045C161.7 218.457 162.874 231.246 162.476 234.843C162.156 237.733 160.57 240.378 159.719 243.14C158.606 240.089 157.009 236.96 156.22 233.826C156.452 226.889 156.308 219.842 156.217 212.898C150.945 209.642 142.681 208.215 136.537 207.546ZM93.5344 130.18C93.7803 127.596 94.5 125.089 94.7597 122.524C106.417 134.451 113.312 150.228 114.148 166.884C114.515 173.817 114.021 180.773 114.569 187.712C113.434 186.647 108.433 181.899 108.347 180.653C108.542 177.957 108.321 175.207 108.312 172.504C108.303 169.615 108.373 166.688 108.118 163.808C107.298 154.537 104.001 144.979 98.8903 137.188C97.2933 134.753 95.4587 132.521 93.6121 130.275L93.5344 130.18Z" fill="#04304D"/>
<path d="M199.307 93.3466C202.835 94.2325 206.474 95.1222 210.138 94.8969C221.827 107.427 228.004 124.122 227.285 141.243C226.963 148.483 225.095 156.34 222.038 162.915C219.178 159.951 216.336 157.138 213.26 154.387C213.902 154.468 214.506 154.479 215.15 154.412C216.967 154.221 218.65 153.551 219.8 152.079C222.021 149.236 221.457 143.962 221.094 140.556C220.527 135.24 218.417 132.801 214.43 129.556C214.969 126.97 215.472 124.226 214.993 121.589C214.301 117.612 212.042 114.079 208.722 111.782C205.237 109.353 200.932 108.404 196.748 109.142C192.695 109.879 189.182 112.089 186.836 115.484C183.916 119.71 183.725 124.33 184.611 129.237C183.106 130.408 181.719 131.64 180.449 133.066C179.362 130.108 177.728 127.764 175.249 125.808C176.092 120.847 176.205 117.542 174.349 112.773C175.64 112.031 176.83 111.037 178.18 110.406C179.863 109.619 183.619 110.266 185.704 109.997C187.499 109.765 189.348 109.144 190.462 107.629C192.54 104.803 191.565 99.3791 190.998 96.1494C191.673 96.4272 192.387 96.6775 193.123 96.6894C195.722 96.7316 197.558 95.0203 199.307 93.3466Z" fill="#EFC346"/>
<path d="M187.169 145.757C187.144 144.853 187.088 143.948 187.089 143.044C187.092 141.262 187.575 139.3 188.912 138.037C191.531 135.562 197.419 136.071 200.813 136.097C203.697 136.119 208.146 135.872 210.278 138.173C212.197 140.243 211.877 143.198 211.708 145.782L206.382 145.779L206.392 148.907C202.647 148.903 198.806 148.506 195.083 148.986C194.511 149.02 193.846 148.842 193.276 148.754L193.255 145.761L187.169 145.757Z" fill="#EFC346"/>
<path d="M170.032 223.555C169.973 216.423 169.847 211.211 173.511 204.798C181.769 190.342 196.926 183.778 212.281 179.594C210.592 182.678 208.011 185.413 205.604 187.962C199.389 194.542 192.661 200.729 186.129 207.001C183.652 209.379 181.106 211.714 178.734 214.198C177.783 215.196 170.263 223.512 170.196 223.534C170.144 223.551 170.087 223.548 170.032 223.555Z" fill="#1C7F97"/>
<path d="M108.347 180.653C108.309 180.803 108.345 180.697 108.151 180.924C106.407 179.943 103.574 174.91 102.52 173.061C96.3678 162.043 93.1325 149.635 93.12 137.015C93.1184 134.831 92.9513 132.301 93.5344 130.18C95.4072 132.458 97.2709 134.719 98.8903 137.188C104.001 144.979 107.298 154.537 108.118 163.808C108.373 166.688 108.303 169.615 108.312 172.504C108.321 175.207 108.542 177.957 108.347 180.653Z" fill="#1C7F97"/>
<path d="M156.22 233.826C155.002 232.293 154.079 230.239 153.075 228.54C151.56 225.978 149.906 223.502 148.119 221.122C145.851 218.101 143.413 215.211 140.819 212.465C139.403 210.956 137.74 209.495 136.466 207.873L136.537 207.546C142.681 208.215 150.945 209.642 156.217 212.898C156.308 219.842 156.452 226.889 156.22 233.826Z" fill="#1C7F97"/>
<path d="M198.896 118.193C202.322 117.798 205.423 120.246 205.834 123.67C206.246 127.094 203.813 130.206 200.391 130.634C196.946 131.066 193.807 128.612 193.392 125.165C192.978 121.717 195.447 118.59 198.896 118.193Z" fill="#E2DFE3"/>
<path d="M127.022 160.934L130.152 160.942L130.115 164.052L127.194 163.993C127.094 162.976 127.065 161.954 127.022 160.934Z" fill="#DA5C5A"/>
<path d="M127.181 168.126L130.157 168.12L130.144 171.236L127.188 171.24L127.181 168.126Z" fill="#EFC346"/>
<path d="M127.197 175.349L130.11 175.312L130.031 178.321L127.189 178.302L127.197 175.349Z" fill="#EFC346"/>
<path d="M127.215 154.248L130.032 154.252L130 156.905L127.218 156.872L127.215 154.248Z" fill="#DA5C5A"/>
<path d="M157.757 109.414C158.448 109.334 159.145 109.314 159.839 109.353C162.755 109.544 165.662 110.824 167.57 113.074C169.381 115.209 170.113 117.989 169.864 120.753C169.555 124.2 167.757 126.515 165.179 128.664C168.323 128.989 171.231 129.91 173.501 132.202C177.795 136.538 176.905 143.631 176.855 149.215C174.747 149.026 172.586 149.113 170.469 149.115L160.258 149.129C153.89 149.137 147.478 148.983 141.117 149.231C141.394 143.628 140.213 137.63 144.098 132.917C146.524 129.973 149.874 129.052 153.529 128.724C151.207 126.978 149.45 124.646 148.901 121.75C148.392 118.983 149.004 116.126 150.603 113.81C152.322 111.332 154.824 109.938 157.757 109.414ZM144.703 145.907C145.887 145.903 147.079 145.866 148.262 145.905C148.142 144.244 147.704 141.804 148.883 140.447C149.132 140.16 149.48 139.905 149.878 139.91C150.358 139.917 150.8 140.299 151.073 140.663C152.129 142.07 151.829 144.296 151.751 145.945L160.703 145.957L166.466 145.958L166.477 145.764C166.54 144.406 165.926 141.397 166.9 140.357C167.238 139.995 167.896 139.812 168.376 139.858C168.754 139.895 169.061 140.167 169.258 140.476C170.122 141.831 169.714 144.385 169.763 145.959L173.418 145.964C173.415 142.204 173.788 137.657 170.912 134.749C167.817 131.621 162.403 132.031 158.36 132.096C158.218 132.098 158.076 132.102 157.934 132.107C154.179 132.166 149.992 131.9 147.122 134.81C144.197 137.774 144.609 142.095 144.703 145.907Z" fill="#04304D"/>
<path d="M158.961 112.756C162.827 112.536 166.15 115.468 166.413 119.332C166.677 123.195 163.782 126.551 159.922 126.858C157.386 127.061 154.937 125.884 153.51 123.777C152.082 121.671 151.897 118.96 153.025 116.679C154.153 114.398 156.42 112.9 158.961 112.756Z" fill="#E2DFE3"/>
<path d="M192.265 53.8131C193.382 53.7365 194.567 53.845 195.666 54.0512C199.129 54.6803 202.194 56.6772 204.168 59.5915C206.338 62.8122 206.888 66.7784 206.112 70.5487C205.788 72.0716 205.263 73.5444 204.551 74.9284C203.08 77.8303 196.184 88.2656 193.847 89.8272C193.055 89.9072 192.399 89.9444 191.737 89.4369C189.138 87.4447 182.067 76.2156 180.609 72.8978C180.063 71.6562 179.743 70.3747 179.593 69.0262C179.191 65.4131 180.091 61.5656 182.389 58.7062C184.863 55.6281 188.429 54.2128 192.265 53.8131Z" fill="#04304D"/>
<path d="M192.052 57.3866C194.379 57.2006 196.752 57.6912 198.712 58.9912C200.867 60.4194 202.42 62.8997 202.866 65.435C203.785 70.6603 200.496 75.2028 197.669 79.2409L193.582 85.0572L193.244 85.3925L192.969 85.3519C191.607 84.1875 185.737 75.1497 184.676 73.0853C184.091 71.9469 183.597 70.7553 183.357 69.4934C182.835 66.7534 183.343 63.8034 184.939 61.4956C186.664 59.0025 189.15 57.8975 192.052 57.3866Z" fill="#DA5C5A"/>
<path d="M192.622 60.8691C195.866 60.5928 198.713 63.0147 198.961 66.2609C199.209 69.5075 196.763 72.3338 193.515 72.5538C190.306 72.7709 187.522 70.3609 187.276 67.1541C187.031 63.9469 189.417 61.1419 192.622 60.8691Z" fill="#04304D"/>
<path d="M192.205 64.4616C193.438 64.0056 194.806 64.6388 195.257 65.8734C195.707 67.1081 195.068 68.4738 193.832 68.9191C192.602 69.3613 191.247 68.7272 190.799 67.5C190.352 66.2728 190.98 64.9147 192.205 64.4616Z" fill="#E2DFE3"/>
<path d="M117.449 107.722C120.147 107.327 123.493 108.509 125.702 110.008C128.367 111.816 130.347 114.68 130.919 117.864C131.27 119.887 131.153 121.963 130.576 123.934C128.709 130.353 122.413 138.169 118.529 143.675C118.365 143.844 118.287 143.863 118.069 143.938C117.961 143.872 117.852 143.812 117.754 143.731C115.524 141.908 107.985 129.592 106.583 126.503C105.935 125.074 105.442 123.584 105.287 122.016C104.952 118.655 105.796 115.087 107.967 112.454C110.437 109.457 113.654 108.09 117.449 107.722Z" fill="#04304D"/>
<path d="M117.273 111.3C119.466 111.103 121.732 111.606 123.573 112.829C125.561 114.15 127.085 116.31 127.507 118.674C128.544 124.492 122.022 132.572 118.788 137.221L118.078 138.141C117.289 137.493 116.552 136.084 115.968 135.22C113.32 131.309 109.538 126.382 108.887 121.612C108.531 119.183 109.185 116.714 110.697 114.78C112.346 112.671 114.683 111.633 117.273 111.3Z" fill="#2EAECB"/>
<path d="M116.952 114.302C119.975 113.757 122.869 115.758 123.427 118.778C123.986 121.798 122 124.702 118.982 125.275C115.945 125.852 113.017 123.848 112.455 120.808C111.892 117.768 113.909 114.85 116.952 114.302Z" fill="#04304D"/>
<path d="M117.733 117.747C118.841 117.601 119.862 118.366 120.032 119.47C120.202 120.574 119.459 121.611 118.359 121.805C117.627 121.934 116.881 121.657 116.411 121.08C115.941 120.503 115.82 119.717 116.094 119.026C116.369 118.334 116.996 117.845 117.733 117.747Z" fill="#E2DFE3"/>
<path d="M160.221 161.157C162.861 160.921 165.934 161.868 168.109 163.352C170.729 165.138 172.733 168.102 173.303 171.231C174.849 179.722 165.642 191.018 161.088 197.703L160.86 197.879L160.559 197.806C159.138 195.967 157.908 193.902 156.622 191.962C153.433 187.153 149.056 181.608 148.247 175.782C147.775 172.382 148.583 168.819 150.689 166.082C153.091 162.959 156.425 161.652 160.221 161.157Z" fill="#04304D"/>
<path d="M159.811 164.737C162.051 164.373 164.519 165 166.371 166.297C168.296 167.65 169.606 169.712 170.013 172.029C171.049 178.156 164.729 186.427 161.33 191.292C161.157 191.555 161.019 191.704 160.763 191.887C160.7 191.848 160.632 191.817 160.575 191.77C158.171 189.805 152.423 178.474 151.807 175.341C151.339 172.962 151.794 170.549 153.188 168.544C154.825 166.192 157.099 165.219 159.811 164.737Z" fill="#DA5C5A"/>
<path d="M159.984 168.374C163.082 167.902 165.98 170.017 166.478 173.11C166.975 176.204 164.884 179.12 161.795 179.643C158.669 180.171 155.712 178.051 155.208 174.921C154.705 171.791 156.85 168.851 159.984 168.374Z" fill="#04304D"/>
<path d="M160.37 171.805C161.524 171.547 162.675 172.249 162.974 173.393C163.273 174.537 162.613 175.712 161.481 176.052C160.711 176.283 159.877 176.076 159.305 175.511C158.733 174.946 158.516 174.114 158.738 173.342C158.96 172.57 159.586 171.98 160.37 171.805Z" fill="#E2DFE3"/>
<path d="M167.975 92.9544C166.488 90.9931 165.473 89.0103 165.855 86.4584C166.166 84.3797 167.335 82.3197 169.069 81.1063C170.844 79.865 173.238 79.5547 175.344 79.9447C177.315 80.3094 179.088 81.4038 180.221 83.0669C181.318 84.6775 181.824 86.7556 181.44 88.6797C181.11 90.3369 180.228 91.6931 179.287 93.0616C181.645 93.8453 183.88 94.7566 185.052 97.1375C186.032 99.1275 185.95 101.587 185.937 103.752L182.598 103.74C176.773 103.838 170.989 103.499 165.152 103.752L161.72 103.821C161.653 100.8 161.493 97.8013 163.813 95.465C164.965 94.3059 166.481 93.5684 167.975 92.9544ZM173.827 91.8947C175.397 91.8197 176.805 90.9031 177.51 89.4978C178.214 88.0922 178.106 86.4156 177.227 85.1125C176.347 83.8091 174.833 83.0816 173.266 83.2088C170.898 83.4013 169.122 85.4569 169.275 87.8275C169.428 90.1984 171.454 92.0084 173.827 91.8947Z" fill="#04304D"/>
<path d="M165.152 103.752C165.143 101.96 164.864 99.3687 166.157 97.9569C167.663 96.3125 171.236 96.3316 173.288 96.3291C175.697 96.3262 179.574 96.165 181.446 97.9312C182.519 98.9437 182.642 100.805 182.635 102.197C182.631 102.712 182.618 103.226 182.598 103.74C176.773 103.837 170.989 103.499 165.152 103.752Z" fill="#EFC346"/>
<path d="M136.709 80.6831C139.525 80.5216 142.281 81.2819 144.442 83.1438C146.458 84.9003 147.675 87.4009 147.812 90.0719C148.192 96.4834 142.156 103.505 138.132 108.061L137.654 108.469C137.263 108.516 137.169 108.522 136.832 108.258C136.407 107.923 135.956 107.253 135.577 106.84C132.303 103.271 128.336 97.5394 127.604 92.6469C127.188 89.8663 127.815 86.7675 129.525 84.5038C131.286 82.1719 133.885 81.0591 136.709 80.6831Z" fill="#04304D"/>
<path d="M136.528 84.0984C138.302 83.9678 140.065 84.1978 141.555 85.2447C143.007 86.265 144.046 88.0091 144.299 89.7603C144.971 94.4016 140.724 99.3125 138.17 102.764L137.71 103.262C137.448 103.29 137.414 103.332 137.167 103.198C135.64 102.377 131.809 94.9019 131.29 93.0406C130.747 91.0959 130.847 88.9762 131.892 87.2103C132.927 85.4619 134.63 84.5972 136.528 84.0984Z" fill="#EFC346"/>
<path d="M136.859 85.5522C139.658 85.1275 142.271 87.0578 142.687 89.8587C143.103 92.66 141.164 95.2659 138.362 95.6731C135.572 96.0784 132.98 94.1503 132.566 91.3619C132.152 88.5731 134.072 85.975 136.859 85.5522Z" fill="#04304D"/>
<path d="M137.344 88.8328C138.335 88.7153 139.24 89.4066 139.387 90.3934C139.535 91.38 138.872 92.3056 137.89 92.4831C137.227 92.6028 136.552 92.3525 136.128 91.83C135.704 91.3078 135.597 90.5956 135.85 89.9722C136.103 89.3484 136.676 88.9119 137.344 88.8328Z" fill="#E2DFE3"/>
<path d="M136.148 260.861L172.509 260.804C176.068 260.808 179.627 260.794 183.186 260.762C184.755 260.746 186.486 260.542 188.042 260.689C188.82 260.763 189.588 260.998 190.173 261.537C190.623 261.951 190.917 262.564 190.927 263.179C190.937 263.768 190.68 264.323 190.264 264.733C188.729 266.246 185.678 265.786 183.672 265.759L150.498 265.767C144.926 265.77 139.317 265.924 133.75 265.747C132.393 265.703 130.68 265.707 129.717 264.585C129.376 264.189 129.243 263.711 129.315 263.197C129.469 262.11 130.206 261.555 131.044 260.954C132.72 260.794 134.463 260.874 136.148 260.861Z" fill="#DA5C5A"/>
<path d="M191.435 213.571C197.976 213.426 204.543 213.648 211.088 213.624C209.042 216.409 207.102 219.27 205.269 222.199L201.501 227.917C199.426 224.963 197.322 222.029 195.192 219.116C193.917 217.354 192.394 215.523 191.435 213.571Z" fill="#EFC346"/>
<path d="M178.206 163.779C183.281 165.323 189.488 168.478 194.434 170.714C193.154 171.224 191.925 171.903 190.695 172.522C188.075 173.443 185.54 174.83 182.953 175.872C181.723 172.954 178.513 166.591 178.206 163.779Z" fill="#04304D"/>
<path d="M120.007 215.544C122.435 215.449 124.919 215.588 127.352 215.615C124.995 219.303 122.34 222.8 119.929 226.457C118.898 225.457 117.581 222.953 116.708 221.633C115.337 219.577 113.911 217.558 112.431 215.578C114.949 215.686 117.488 215.594 120.007 215.544Z" fill="#1C7F97"/>
<path d="M105.983 221.181C107.678 222.761 110.404 227.818 111.617 230.002C109.682 230.048 107.742 230.043 105.806 230.059C104.022 230.054 102.237 230.077 100.454 230.13C102.25 227.154 103.95 223.993 105.983 221.181Z" fill="#04304D"/>
<path d="M217.364 222.599C218.649 223.048 222.451 228.386 223.446 229.728C221.421 229.815 219.377 229.752 217.35 229.737C215.315 229.726 213.274 229.831 211.237 229.843C213.244 227.392 215.257 224.968 217.364 222.599Z" fill="#04304D"/>
<path d="M225.499 207.273C227.559 206.827 229.59 208.134 230.037 210.194C230.484 212.253 229.178 214.285 227.119 214.733C225.058 215.182 223.024 213.875 222.577 211.814C222.129 209.753 223.438 207.719 225.499 207.273Z" fill="#DA5C5A"/>
<path d="M231.108 220.533C233.093 220.042 235.101 221.252 235.594 223.236C236.088 225.22 234.881 227.229 232.897 227.725C230.91 228.222 228.897 227.012 228.402 225.025C227.908 223.037 229.12 221.025 231.108 220.533Z" fill="#1C7F97"/>
<path d="M235.424 207.94C237.591 207.907 239.752 207.883 241.919 207.941C241.888 210.086 241.882 212.231 241.899 214.375L235.445 214.381C235.367 212.235 235.36 210.087 235.424 207.94Z" fill="#DA5C5A"/>
<path d="M109.545 215.674C107.485 216.119 105.454 214.812 105.007 212.753C104.559 210.694 105.866 208.661 107.925 208.213C109.985 207.764 112.019 209.072 112.467 211.133C112.914 213.194 111.606 215.227 109.545 215.674Z" fill="#DA5C5A"/>
<path d="M99.62 215.007C97.4528 215.039 95.2919 215.064 93.125 215.005C93.1553 212.861 93.1616 210.716 93.1444 208.572L99.5991 208.566C99.6769 210.712 99.6837 212.86 99.62 215.007Z" fill="#DA5C5A"/>
<path d="M90.1081 220.974C90.7481 220.873 91.3916 220.843 92.0266 221.001C92.9628 221.234 93.835 221.85 94.3288 222.684C94.7513 223.398 94.8884 224.263 94.6438 225.061C94.2953 226.198 93.4175 226.774 92.4219 227.306C91.6922 227.517 90.9569 227.578 90.2263 227.338C89.3131 227.038 88.5638 226.375 88.1544 225.505C87.7766 224.714 87.6913 223.806 87.9891 222.975C88.3663 221.921 89.1403 221.433 90.1081 220.974Z" fill="#EFC346"/>
<path d="M162.824 154.868C167.465 155.095 172.163 154.958 176.815 155.045C176.327 156.119 175.683 157.134 175.088 158.152L174.16 159.843C173.743 159.391 173.309 158.946 172.847 158.538C170.217 156.213 165.881 156.881 162.663 157.049C162.665 156.304 162.724 155.605 162.824 154.868Z" fill="#EFC346"/>
<path d="M146.664 155C148.17 155.981 149.435 157.527 150.673 158.821C149.193 159.853 147.935 161.378 146.695 162.688C145.334 161.47 143.815 160.189 142.754 158.7C144.03 157.446 145.281 156.136 146.664 155Z" fill="#EFC346"/>
<path d="M146.463 191.651C147.21 191.587 147.964 191.597 148.714 191.587C149.496 192.979 149.947 194.52 150.401 196.042C149.153 195.817 147.926 195.541 146.693 195.243C145.456 195.01 144.216 194.825 142.969 194.648C142.688 193.727 142.415 192.804 142.152 191.877C143.587 191.779 145.027 191.726 146.463 191.651Z" fill="#EFC346"/>
<path d="M196.385 158.791L196.525 158.893C196.72 160.464 195.565 163.556 195.135 165.144L191.436 162.716C190.526 162.197 189.654 161.599 188.775 161.029C191.359 160.453 193.801 159.352 196.385 158.791Z" fill="#EFC346"/>
<path d="M142.329 185.374C141.873 185.268 141.628 185.269 141.288 184.938C141.182 184.263 141.11 167.866 141.182 167.527C141.27 167.108 141.344 166.932 141.695 166.692C141.895 166.724 142.087 166.692 142.215 166.871C142.82 167.719 142.508 181.438 142.442 183.431C142.393 184.079 142.344 184.724 142.329 185.374Z" fill="#04304D"/>
<path d="M201.435 162.662C203.581 163.429 205.714 165.174 207.618 166.443L205.77 167.02C204.26 167.562 202.779 168.172 201.295 168.779C201.257 166.738 201.354 164.701 201.435 162.662Z" fill="#EFC346"/>
<path d="M119.719 93.5666C120.982 94.2391 122.116 95.2109 123.252 96.0766C122.275 97.1275 121.184 98.0841 120.099 99.0213C120.012 99.0284 119.925 99.0478 119.838 99.0425C119.02 98.9931 117.294 96.9309 116.67 96.2978C117.733 95.4344 118.723 94.5053 119.719 93.5666Z" fill="#EFC346"/>
<path d="M155.321 77.1487C156.4 77.7106 157.386 79.0634 158.205 79.9716L155.484 82.7112C154.467 81.8034 153.487 80.8484 152.495 79.9128C153.387 78.9312 154.342 78.0416 155.321 77.1487Z" fill="#EFC346"/>
<path d="M138.158 120.27C139.11 120.719 140.219 121.973 141.032 122.694C140.274 123.579 139.395 124.332 138.527 125.105L138.136 125.157C137.161 124.601 136.38 123.632 135.648 122.796C136.369 121.846 137.244 121.028 138.158 120.27Z" fill="#EFC346"/>
<path d="M181.705 154.715C183.364 154.769 185.156 154.951 186.793 154.642L184.337 157.647C183.833 158.38 183.372 159.15 182.897 159.903C182.627 158.155 182.133 156.43 181.705 154.715Z" fill="#EFC346"/>
<path d="M142.442 183.431C144.24 183.259 146.446 183.348 147.916 184.532L147.959 184.793C146.701 185.78 143.825 185.243 142.329 185.374C142.344 184.724 142.393 184.079 142.442 183.431Z" fill="#EFC346"/>
<path d="M149.392 103.345C149.462 103.368 149.536 103.381 149.603 103.411C150.015 103.598 150.253 103.847 150.446 104.237C150.311 105.314 148.737 106.513 147.966 107.26C147.501 107.126 147.206 106.894 146.926 106.509C146.955 105.418 148.645 104.15 149.392 103.345Z" fill="#04304D"/>
<path d="M154.978 92.7288C155.662 92.8388 156.138 93.3653 156.638 93.8066C155.803 94.4216 155.075 95.1975 154.334 95.9222C153.768 95.7969 153.302 95.2356 152.895 94.8453L154.978 92.7288Z" fill="#04304D"/>
<path d="M135.897 131.652C136.585 131.99 137.096 132.668 137.599 133.229C137.158 133.704 136.679 134.147 136.213 134.597C135.559 134.264 134.945 133.523 134.408 133.016C134.898 132.555 135.395 132.1 135.897 131.652Z" fill="#04304D"/>
<path d="M107.267 102.892C107.957 103.209 108.45 103.689 108.972 104.226C108.494 104.703 107.988 105.142 107.479 105.586C106.859 105.351 106.327 104.636 105.886 104.158L107.267 102.892Z" fill="#04304D"/>
</svg>
